#!OML:ASF X:\für Bonn\!DataBase\2005_08_12_Daniel\c3d\Daniel.ASF
:FULLY-SPECIFIED
:DEGREES
16
root 1.50682 16.8143 -19.4302 349.181 -1.18264 -1.7753
lowerback 19.3792 1.68255 -0.251733
upperback 6.7467 2.01564 -2.66028
thorax -3.46953 1.01943 -3.12627
lowerneck 6.65345 1.98516 0.210317
upperneck 25.2146 3.11783 -1.68441
head 6.65323 1.40581 -0.473513
rclavicle -5.96354e-016 1.43125e-014
rhumerus -9.70796 -21.7723 -88.3434
rradius 12.5221
rwrist 32.9793
rhand -18.8389 16.0101
rfingers 7.12502
rthumb 7.46066 -13.8384
lclavicle -5.96354e-016 1.43125e-014
lhumerus -77.8499 63.2343 16.393
lradius 14.6175
lwrist -62.7559
lhand -8.76349 -3.32221
lfingers 7.12502
lthumb 17.1741 25.9388
rfemur 19.7981 -6.99106 14.3402
rtibia 41.0656
rfoot -5.71235 -359.095
rtoes -13.1096
lfemur -25.6962 -2.28326 -17.8356
ltibia 39.9766
lfoot -4.00371 0.445243
ltoes -5.1563
17
root 1.53541 16.8372 -19.3075 349.029 -1.2502 -1.49114
lowerback 19.8384 1.68666 -0.712686
upperback 6.84418 1.91784 -2.80031
thorax -3.61691 0.967271 -3.00806
lowerneck 7.1192 2.10416 0.257503
upperneck 24.8434 3.28363 -1.79317
head 6.45958 1.48671 -0.518522
rclavicle -3.51849e-014 -1.59028e-015
rhumerus -9.48341 -22.057 -88.8247
rradius 12.3651
rwrist 33.5259
rhand -18.3078 16.0725
rfingers 7.12502
rthumb 7.97329 -13.7571
lclavicle -3.51849e-014 -1.59028e-015
lhumerus -80.1837 63.3229 13.7202
lradius 14.4007
lwrist -64.3847
lhand -8.23957 -3.29375
lfingers 7.12502
lthumb 17.6783 25.9226
rfemur 17.9996 -7.43045 13.5033
rtibia 44.3712
rfoot -3.68481 -359.656
rtoes -12.2976
lfemur -25.1264 -1.7909 -18.307
ltibia 40.1402
lfoot -4.39053 0.0406354
ltoes -5.14395
18
root 1.56252 16.8612 -19.1881 348.919 -1.30593 -1.21836
lowerback 20.2862 1.69066 -1.18901
upperback 6.91967 1.81354 -2.90758
thorax -3.78161 0.9116 -2.84388
lowerneck 7.44249 2.23995 0.268786
upperneck 24.5652 3.47574 -1.90747
head 6.3208 1.57559 -0.556782
rclavicle 2.52457e-014 0
rhumerus -9.27817 -22.2534 -89.2613
rradius 12.2282
rwrist 34.0577
rhand -17.7989 16.161
rfingers 7.12502
rthumb 8.46437 -13.6493
lclavicle 2.52457e-014 0
lhumerus -80.0928 63.0373 13.8744
lradius 14.3045
lwrist -64.7673
lhand -7.85726 -3.07722
lfingers 7.12502
lthumb 18.0462 26.1056
rfemur 16.1526 -7.87119 12.7152
rtibia 47.6164
rfoot -1.98543 -360.167
rtoes -11.6564
lfemur -24.5726 -1.30555 -18.7579
ltibia 40.241
lfoot -4.76171 -0.370128
ltoes -5.20942
19
root 1.58882 16.8866 -19.0726 348.863 -1.35635 -0.983912
lowerback 20.6932 1.69495 -1.62537
upperback 7.00087 1.71579 -2.99204
thorax -3.91615 0.859916 -2.67689
lowerneck 7.5478 2.36064 0.284338
upperneck 24.4202 3.65912 -2.05709
head 6.26202 1.65603 -0.604261
rclavicle -1.5704e-014 9.54166e-015
rhumerus -9.0467 -22.364 -89.6853
rradius 12.1057
rwrist 34.608
rhand -17.2967 16.273
rfingers 7.12502
rthumb 8.94909 -13.5173
lclavicle -1.5704e-014 9.54166e-015
lhumerus -78.8157 62.6528 15.3885
lradius 14.2905
lwrist -64.6328
lhand -7.45164 -2.88981
lfingers 7.12502
lthumb 18.4364 26.2565
rfemur 14.2598 -8.30878 12.0321
rtibia 50.7674
rfoot -0.714811 -360.629
rtoes -11.1998
lfemur -24.069 -0.874381 -19.1586
ltibia 40.3007
lfoot -5.16139 -0.73844
ltoes -5.22684
20
root 1.6137 16.9097 -18.9604 348.821 -1.41421 -0.732846
lowerback 21.0943 1.69879 -2.09146
upperback 7.08593 1.60785 -3.07676
thorax -4.04223 0.803351 -2.48975
lowerneck 7.60518 2.49488 0.326253
upperneck 24.2839 3.86389 -2.22264
head 6.21528 1.74763 -0.660074
rclavicle 2.38542e-014 -3.81667e-014
rhumerus -8.78189 -22.3297 -90.1442
rradius 11.9855
rwrist 35.1383
rhand -16.9082 16.3231
rfingers 7.12502
rthumb 9.32389 -13.4507
lclavicle 2.38542e-014 -3.81667e-014
lhumerus -76.618 62.1689 17.9836
lradius 14.356
lwrist -63.9333
lhand -7.1374 -2.6612
lfingers 7.12502
lthumb 18.7387 26.4562
rfemur 12.3744 -8.74757 11.3607
rtibia 53.7949
rfoot 0.151444 -360.957
rtoes -10.747
lfemur -23.5713 -0.507604 -19.5537
ltibia 40.323
lfoot -5.55037 -1.01968
ltoes -5.09094
21
root 1.63891 16.9336 -18.8517 348.78 -1.50233 -0.512082
lowerback 21.5426 1.72637 -2.50418
upperback 7.15022 1.53522 -3.14858
thorax -4.21058 0.764716 -2.32904
lowerneck 7.62424 2.60961 0.354649
upperneck 24.1908 4.04175 -2.3757
head 6.18832 1.82562 -0.709629
rclavicle -1.98785e-015 2.38542e-014
rhumerus -8.59477 -21.8756 -90.5739
rradius 11.9788
rwrist 35.2584
rhand -16.4655 16.3637
rfingers 7.12502
rthumb 9.75107 -13.3905
lclavicle -1.98785e-015 2.38542e-014
lhumerus -73.9875 61.5857 21.0549
lradius 14.434
lwrist -63.1415
lhand -6.80411 -2.49211
lfingers 7.12502
lthumb 19.0592 26.5941
rfemur 10.5168 -9.17419 10.7575
rtibia 56.6445
rfoot 0.680491 -361.103
rtoes -10.2612
lfemur -23.0579 -0.123558 -19.9036
ltibia 40.2889
lfoot -5.93745 -1.30059
ltoes -5.04307
